<svg width="255" height="46" viewBox="0 0 255 46" fill="none" xmlns="http://www.w3.org/2000/svg">
<path d="M0 6C0 2.68629 2.68629 0 6 0H249C252.314 0 255 2.68629 255 6V40C255 43.3137 252.314 46 249 46H6C2.68629 46 0 43.3137 0 40V6Z" fill="#0D1117"/>
<path d="M9.00166 9.11157C8.98932 8.7735 9.04607 8.43789 9.16699 8.1245C9.28791 7.8111 9.47052 7.52979 9.70248 7.29536C10.2404 6.8265 10.9166 6.57233 11.6149 6.57233C12.3133 6.57233 12.9894 6.82897 13.5274 7.29536C13.7569 7.53472 13.9395 7.8185 14.0629 8.1319C14.1862 8.4453 14.2504 8.7809 14.2504 9.12144C14.2504 9.46198 14.1862 9.79758 14.0629 10.111C13.9395 10.4244 13.7569 10.7082 13.5274 10.9475C12.9919 11.4164 12.3182 11.6706 11.6199 11.6706C10.9215 11.6706 10.2478 11.4139 9.71235 10.9475C9.48039 10.7106 9.29531 10.4244 9.17439 10.1085C9.05348 9.79018 8.99425 9.45211 9.00166 9.11157ZM13.9617 32.2584H9.2731V13.8619H13.9617V32.2584Z" fill="white"/>
<path d="M17.0118 22.9727C17.0118 20.1201 17.6978 17.8276 19.0673 16.0903C19.7089 15.2464 20.548 14.5703 21.5104 14.1162C22.4727 13.6621 23.5314 13.445 24.5949 13.4845C25.5031 13.4376 26.4112 13.6029 27.2452 13.9657C28.0793 14.3284 28.8147 14.8812 29.3971 15.5746L29.5969 13.8225H34.135V31.7724C34.172 33.2654 33.7821 34.7361 33.0147 36.0193C32.262 37.2235 31.1664 38.181 29.8684 38.7708C28.3754 39.4272 26.7566 39.748 25.1255 39.711C23.7485 39.711 22.3864 39.4321 21.118 38.8991C19.9681 38.4623 18.9514 37.7344 18.1716 36.7892L20.3802 33.7688C20.9378 34.4252 21.6337 34.9508 22.4185 35.3111C23.2032 35.6714 24.0595 35.854 24.9232 35.849C26.0583 35.9132 27.1737 35.5332 28.0275 34.7904C28.41 34.3931 28.7061 33.9243 28.8961 33.4085C29.0861 32.8928 29.1651 32.3449 29.1305 31.7971V30.8026C28.563 31.4418 27.8622 31.9452 27.0725 32.2808C26.2853 32.6164 25.4315 32.7719 24.5752 32.7373C23.5215 32.7644 22.4752 32.5424 21.5252 32.0858C20.5751 31.6293 19.7509 30.9556 19.1167 30.1191C17.72 28.367 17.0315 26.0302 17.0315 23.1775V22.9678H17.0068L17.0118 22.9727ZM22.0088 23.328C21.9323 24.7198 22.2901 26.1017 23.0354 27.2837C23.3389 27.7403 23.7559 28.1153 24.2445 28.367C24.7356 28.6187 25.281 28.7446 25.8337 28.7273C26.4852 28.7717 27.1342 28.6385 27.7116 28.3374C28.2891 28.0388 28.7727 27.5873 29.1083 27.032V19.207C28.7826 18.6543 28.3063 18.2002 27.7338 17.9016C27.1613 17.603 26.5173 17.4673 25.8732 17.5117C25.313 17.4945 24.7603 17.6203 24.2643 17.8769C23.7683 18.1336 23.3488 18.5136 23.0452 18.98C22.3568 19.9547 22.0088 21.3983 22.0088 23.328Z" fill="white"/>
<path d="M42.0978 13.8326L42.2557 16.0288C42.8875 15.2046 43.6993 14.5433 44.6272 14.1016C45.555 13.6599 46.5742 13.4452 47.5983 13.4822C49.5675 13.4822 51.0357 14.0794 51.9883 15.2712C52.9408 16.4656 53.4442 18.2078 53.4738 20.5644V32.814H48.5113V20.6829C48.5853 19.8414 48.3386 19.0024 47.8278 18.3386C47.5144 18.0696 47.1516 17.8672 46.7593 17.7414C46.3669 17.6155 45.9573 17.5711 45.5476 17.6106C44.911 17.5859 44.2792 17.7414 43.7265 18.0647C43.1737 18.3855 42.7172 18.8593 42.4137 19.4318V32.8016H37.4512V13.8449L42.0978 13.8326Z" fill="white"/>
<path d="M56.5118 9.11147C56.4994 8.7734 56.5636 8.4378 56.6968 8.1244C56.8301 7.81101 57.03 7.52969 57.2866 7.29279C57.8813 6.8264 58.6315 6.56976 59.4039 6.56976C60.1763 6.56976 60.924 6.8264 61.5211 7.29279C62.0295 7.77893 62.3133 8.43533 62.3133 9.11888C62.3133 9.80242 62.0295 10.4588 61.5211 10.945C60.9289 11.4113 60.1812 11.668 59.4113 11.668C58.6414 11.668 57.8936 11.4113 57.3014 10.945C57.0448 10.7081 56.8424 10.4218 56.7067 10.1059C56.571 9.79008 56.5068 9.45201 56.5167 9.11147H56.5118ZM61.9949 32.2608H56.8153V13.8618H61.9949V32.2583V32.2608Z" fill="white"/>
<path d="M71.4537 9.33374V13.9458H74.5605V17.6227H71.4537V27.0048C71.4043 27.5353 71.545 28.0684 71.8485 28.5002C72.0509 28.6779 72.2853 28.8087 72.5395 28.8876C72.7936 28.9641 73.0601 28.9863 73.3217 28.9493C73.798 28.9518 74.2718 28.9148 74.7431 28.8358V32.6385C73.7906 32.9396 72.7986 33.0901 71.8041 33.0876C68.4061 33.0876 66.6763 31.3134 66.6146 27.7673V17.6449H63.9717V13.968H66.6146V9.35595H71.4562V9.33127L71.4537 9.33374Z" fill="white"/>
<path d="M85.4871 33.0804C84.2484 33.1273 83.012 32.9274 81.8498 32.4906C80.69 32.0538 79.6289 31.3875 78.7282 30.5313C76.9884 28.831 76.1223 26.5731 76.1223 23.7328V23.2393C76.0877 21.4823 76.4653 19.7426 77.2204 18.1583C77.899 16.7246 78.9799 15.5204 80.3322 14.6937C81.719 13.8695 83.3082 13.45 84.922 13.4747C87.4983 13.4747 89.5415 14.289 91.0197 15.9226C92.4978 17.5562 93.2455 19.8635 93.2455 22.8518V24.9074H81.2353C81.3464 26.045 81.8695 27.1012 82.7085 27.8785C83.5673 28.6311 84.6802 29.0284 85.8203 28.989C86.6914 29.0284 87.5625 28.8557 88.3521 28.488C89.1442 28.1203 89.8352 27.5651 90.3682 26.8742L92.8433 29.6552C92.0635 30.7509 91.0024 31.617 89.7735 32.1624C88.4311 32.7867 86.9677 33.1001 85.4871 33.0779V33.0804ZM84.8924 17.5661C84.4384 17.5488 83.9868 17.6302 83.5673 17.8054C83.1478 17.9806 82.7727 18.2422 82.4642 18.5778C81.7881 19.4094 81.376 20.4236 81.2773 21.4897H88.283V21.085C88.3225 20.1325 87.9992 19.1972 87.3749 18.4766C87.0516 18.1633 86.6667 17.9214 86.2447 17.766C85.8227 17.6105 85.3736 17.5414 84.9245 17.5685H84.8949L84.8924 17.5661Z" fill="white"/>
<path d="M106.771 32.2587H101.813V6.00009H106.771V32.2587Z" fill="white"/>
<path d="M121.209 32.2587C120.982 31.8145 120.817 31.2617 120.713 30.6004C119.517 31.9329 117.962 32.6017 116.047 32.6017C114.236 32.6017 112.733 32.0785 111.543 31.0298C110.352 29.981 109.757 28.6583 109.757 27.0642C109.757 25.1049 110.482 23.5996 111.936 22.5508C113.389 21.5021 115.489 20.9715 118.236 20.9616H120.509V19.9005C120.509 19.0467 120.289 18.3607 119.85 17.8499C119.41 17.3366 118.719 17.08 117.772 17.08C116.94 17.08 116.286 17.2799 115.815 17.6796C115.341 18.0794 115.107 18.6248 115.107 19.3206H110.166C110.166 18.2497 110.497 17.2577 111.158 16.3471C111.82 15.4365 112.755 14.7209 113.962 14.2027C115.168 13.6845 116.526 13.4254 118.031 13.4254C120.311 13.4254 122.12 13.9979 123.46 15.1429C124.8 16.2879 125.469 17.8993 125.469 19.9721V27.9896C125.481 29.7441 125.725 31.0717 126.204 31.9724V32.2636H121.212L121.209 32.2587ZM117.123 28.8237C117.851 28.8237 118.525 28.6608 119.139 28.3375C119.753 28.0118 120.21 27.5775 120.506 27.0297V23.8488H118.66C116.188 23.8488 114.87 24.7026 114.712 26.4127L114.695 26.7039C114.695 27.3184 114.912 27.8267 115.344 28.2265C115.778 28.6263 116.37 28.8261 117.123 28.8261V28.8237Z" fill="white"/>
<path d="M145.58 23.1826C145.58 26.1463 144.949 28.4561 143.683 30.1143C142.417 31.7726 140.65 32.6018 138.382 32.6018C136.376 32.6018 134.774 31.8318 133.578 30.2945L133.355 32.2612H128.911V6.00018H133.851V15.4193C134.991 14.0868 136.489 13.418 138.348 13.418C140.603 13.418 142.372 14.2472 143.656 15.9054C144.939 17.5637 145.578 19.8982 145.578 22.9063V23.1802L145.58 23.1826ZM140.64 22.8248C140.64 20.9568 140.344 19.5922 139.752 18.7309C139.159 17.8697 138.276 17.4403 137.101 17.4403C135.529 17.4403 134.446 18.0844 133.854 19.3725V26.6719C134.458 27.9699 135.552 28.6214 137.136 28.6214C138.72 28.6214 139.779 27.8342 140.282 26.2623C140.522 25.5097 140.64 24.3647 140.64 22.8248Z" fill="white"/>
<path d="M173.51 23.501H171.227V28.0316H169.179V16.2509H173.322C174.682 16.2509 175.73 16.5569 176.471 17.1665C177.211 17.776 177.579 18.6594 177.579 19.8143C177.579 20.6015 177.389 21.2628 177.009 21.7934C176.629 22.3264 176.098 22.7335 175.419 23.0198L178.065 27.9255V28.0316H175.871L173.507 23.501H173.51ZM171.227 21.8501H173.332C174.023 21.8501 174.561 21.6749 174.951 21.327C175.341 20.979 175.533 20.5028 175.533 19.8982C175.533 19.2936 175.353 18.7778 174.995 18.4324C174.637 18.0869 174.102 17.9092 173.389 17.8994H171.227V21.8476V21.8501Z" fill="#C4C4CC"/>
<path d="M188.066 22.773H183.227V26.398H188.883V28.0316H181.179V16.2509H188.827V17.9018H183.227V21.1542H188.066V22.773Z" fill="#C4C4CC"/>
<path d="M198.804 25.2901H194.238L193.283 28.0341H191.156L195.608 16.2509H197.444L201.903 28.0341H199.766L198.804 25.2901ZM194.813 23.6392H198.229L196.521 18.7507L194.813 23.6392Z" fill="#C4C4CC"/>
<path d="M213.715 24.1967C213.597 25.4527 213.133 26.4349 212.324 27.1382C211.514 27.8414 210.438 28.1943 209.096 28.1943C208.158 28.1943 207.332 27.9722 206.616 27.5256C205.9 27.0814 205.35 26.4472 204.96 25.6279C204.573 24.8087 204.37 23.8561 204.353 22.7704V21.6698C204.353 20.5593 204.55 19.5797 204.943 18.7332C205.335 17.8868 205.903 17.2329 206.638 16.7739C207.373 16.3149 208.225 16.0854 209.192 16.0854C210.493 16.0854 211.539 16.4383 212.331 17.1416C213.123 17.8449 213.585 18.8418 213.715 20.1324H211.677C211.581 19.286 211.334 18.674 210.937 18.2989C210.539 17.9238 209.96 17.7363 209.192 17.7363C208.301 17.7363 207.618 18.062 207.142 18.7135C206.663 19.365 206.421 20.3175 206.409 21.576V22.6198C206.409 23.8932 206.636 24.8654 207.092 25.5366C207.549 26.2054 208.215 26.541 209.096 26.541C209.9 26.541 210.505 26.3608 210.91 25.9981C211.314 25.6353 211.571 25.0357 211.68 24.1942H213.718L213.715 24.1967Z" fill="#C4C4CC"/>
<path d="M225.481 17.9018H221.807V28.0341H219.776V17.9018H216.134V16.2509H225.481V17.9018Z" fill="#C4C4CC"/>
<path d="M231.759 16.2509H233.797V24.5127C233.797 25.6405 233.444 26.5362 232.741 27.2C232.038 27.8638 231.108 28.1945 229.953 28.1945C228.724 28.1945 227.774 27.8836 227.105 27.2642C226.436 26.6448 226.101 25.7811 226.101 24.6756H228.139C228.139 25.3024 228.294 25.7713 228.605 26.0871C228.916 26.403 229.365 26.5609 229.953 26.5609C230.503 26.5609 230.942 26.3783 231.268 26.0156C231.594 25.6503 231.757 25.1494 231.757 24.5053V16.2509H231.759Z" fill="#C4C4CC"/>
<path d="M243.952 24.9987C243.952 24.4805 243.77 24.0808 243.407 23.8019C243.044 23.5231 242.385 23.2393 241.435 22.953C240.485 22.6668 239.73 22.3485 239.17 21.998C238.097 21.3244 237.559 20.4434 237.559 19.3601C237.559 18.41 237.946 17.6278 238.721 17.0133C239.496 16.3989 240.5 16.0904 241.736 16.0904C242.556 16.0904 243.286 16.241 243.93 16.5445C244.572 16.8455 245.078 17.2774 245.443 17.8351C245.81 18.3928 245.993 19.0122 245.993 19.6932H243.955C243.955 19.0788 243.762 18.5976 243.377 18.2496C242.992 17.9017 242.44 17.7265 241.722 17.7265C241.053 17.7265 240.532 17.8696 240.164 18.1559C239.794 18.4421 239.609 18.8419 239.609 19.3527C239.609 19.7845 239.809 20.1448 240.209 20.4335C240.609 20.7223 241.265 21.0036 242.183 21.275C243.101 21.5465 243.836 21.8574 244.392 22.2053C244.947 22.5533 245.354 22.953 245.613 23.4022C245.872 23.8537 246 24.3794 246 24.9839C246 25.9661 245.625 26.7459 244.873 27.3258C244.12 27.9057 243.098 28.1969 241.81 28.1969C240.957 28.1969 240.174 28.0389 239.459 27.7231C238.743 27.4072 238.188 26.9729 237.791 26.4152C237.393 25.86 237.196 25.211 237.196 24.4731H239.244C239.244 25.1419 239.466 25.6601 239.908 26.0278C240.349 26.3955 240.984 26.5781 241.81 26.5781C242.524 26.5781 243.057 26.4349 243.417 26.1462C243.775 25.8575 243.955 25.475 243.955 25.0012L243.952 24.9987Z" fill="#C4C4CC"/>
<path d="M159.271 38.5758H154.313V6H159.271V38.5758Z" fill="#00B37E"/>
</svg>
